<?xml version="1.0"?>
<svg xmlns="http://www.w3.org/2000/svg" viewBox="0 0 1280 640" width="1280" height="640">
  <defs>
    <linearGradient id="bg" x1="0" y1="0" x2="0.35" y2="1"><stop offset="0" stop-color="#f3f1f7"></stop><stop offset="1" stop-color="#e7e5ef"></stop></linearGradient>
    <radialGradient id="glow" cx="0%" cy="100%" r="70%"><stop offset="0%" stop-color="#b7bbc9" stop-opacity="0.50"></stop><stop offset="100%" stop-color="#b7bbc9" stop-opacity="0"></stop></radialGradient>
    <linearGradient id="accent" x1="0" y1="0" x2="1" y2="0"><stop offset="0" stop-color="#40a02b"></stop><stop offset="0.5" stop-color="#04a5e5"></stop><stop offset="1" stop-color="#8839ef"></stop></linearGradient>
    <radialGradient id="cubeglow" cx="50%" cy="50%" r="50%"><stop offset="0%" stop-color="#8839ef" stop-opacity="0.20"></stop><stop offset="30%" stop-color="#04a5e5" stop-opacity="0.10"></stop><stop offset="100%" stop-color="#04a5e5" stop-opacity="0"></stop></radialGradient>
    <pattern id="fine" width="32" height="32" patternUnits="userSpaceOnUse"><path d="M32 0H0V32" fill="none" stroke="rgba(76,79,105,0.05)" stroke-width="1"></path></pattern>
    <pattern id="major" width="128" height="128" patternUnits="userSpaceOnUse"><path d="M128 0H0V128" fill="none" stroke="rgba(76,79,105,0.085)" stroke-width="1"></path><path d="M-5 0H5M0 -5V5" stroke="rgba(4,165,229,0.28)" stroke-width="1"></path></pattern>
  </defs>

  <rect width="1280" height="640" fill="url(#bg)"></rect>
  <rect width="1280" height="640" fill="url(#fine)"></rect>
  <rect width="1280" height="640" fill="url(#major)"></rect>
  <rect width="1280" height="640" fill="url(#glow)"></rect>

  <g stroke="#7a8a72" stroke-width="2" fill="none">
    <path d="M 32 64 L 32 32 L 64 32"></path><path d="M 1216 32 L 1248 32 L 1248 64"></path><path d="M 32 576 L 32 608 L 64 608"></path><path d="M 1216 608 L 1248 608 L 1248 576"></path>
  </g>

  <circle cx="197" cy="326" r="200" fill="url(#cubeglow)"></circle>
  <g transform="translate(92,210) scale(1.05)">
    <polygon points="100,10 190,55 100,100 10,55" fill="#fbfaff" stroke="#4c4f69" stroke-width="1.5"></polygon>
    <polygon points="10,55 100,100 100,210 10,165" fill="#bcc0cc" stroke="#4c4f69" stroke-width="1.5"></polygon>
    <polygon points="190,55 100,100 100,210 190,165" fill="#dce0e8" stroke="#4c4f69" stroke-width="1.5"></polygon>
  </g>

  <g transform="translate(380,110)"><rect x="0" y="0" width="28" height="28" rx="3" ry="3" fill="#40a02b"></rect><rect x="28" y="0" width="28" height="28" rx="3" ry="3" fill="#179299"></rect><rect x="56" y="0" width="28" height="28" rx="3" ry="3" fill="#04a5e5"></rect><rect x="84" y="0" width="28" height="28" rx="3" ry="3" fill="#1e66f5"></rect><rect x="0" y="28" width="28" height="28" rx="3" ry="3" fill="#179299"></rect><rect x="112" y="28" width="28" height="28" rx="3" ry="3" fill="#7287fd"></rect><rect x="0" y="56" width="28" height="28" rx="3" ry="3" fill="#04a5e5"></rect><rect x="28" y="56" width="28" height="28" rx="3" ry="3" fill="#1e66f5"></rect><rect x="56" y="56" width="28" height="28" rx="3" ry="3" fill="#7287fd"></rect><rect x="84" y="56" width="28" height="28" rx="3" ry="3" fill="#8839ef"></rect><rect x="0" y="84" width="28" height="28" rx="3" ry="3" fill="#1e66f5"></rect><rect x="112" y="84" width="28" height="28" rx="3" ry="3" fill="#ea76cb"></rect><rect x="0" y="112" width="28" height="28" rx="3" ry="3" fill="#7287fd"></rect><rect x="112" y="112" width="28" height="28" rx="3" ry="3" fill="#fe640b"></rect><rect x="0" y="140" width="28" height="28" rx="3" ry="3" fill="#8839ef"></rect><rect x="28" y="140" width="28" height="28" rx="3" ry="3" fill="#ea76cb"></rect><rect x="56" y="140" width="28" height="28" rx="3" ry="3" fill="#fe640b"></rect><rect x="84" y="140" width="28" height="28" rx="3" ry="3" fill="#df8e1d"></rect></g>
  <g transform="translate(540,138)"><rect x="28" y="0" width="28" height="28" rx="3" ry="3" fill="#04a5e5"></rect><rect x="56" y="0" width="28" height="28" rx="3" ry="3" fill="#1e66f5"></rect><rect x="84" y="0" width="28" height="28" rx="3" ry="3" fill="#7287fd"></rect><rect x="0" y="28" width="28" height="28" rx="3" ry="3" fill="#04a5e5"></rect><rect x="112" y="28" width="28" height="28" rx="3" ry="3" fill="#ea76cb"></rect><rect x="0" y="56" width="28" height="28" rx="3" ry="3" fill="#1e66f5"></rect><rect x="112" y="56" width="28" height="28" rx="3" ry="3" fill="#fe640b"></rect><rect x="0" y="84" width="28" height="28" rx="3" ry="3" fill="#7287fd"></rect><rect x="112" y="84" width="28" height="28" rx="3" ry="3" fill="#df8e1d"></rect><rect x="28" y="112" width="28" height="28" rx="3" ry="3" fill="#ea76cb"></rect><rect x="56" y="112" width="28" height="28" rx="3" ry="3" fill="#fe640b"></rect><rect x="84" y="112" width="28" height="28" rx="3" ry="3" fill="#df8e1d"></rect></g>
  <g transform="translate(700,138)"><rect x="0" y="0" width="28" height="28" rx="3" ry="3" fill="#04a5e5"></rect><rect x="112" y="0" width="28" height="28" rx="3" ry="3" fill="#df8e1d"></rect><rect x="28" y="28" width="28" height="28" rx="3" ry="3" fill="#1e66f5"></rect><rect x="84" y="28" width="28" height="28" rx="3" ry="3" fill="#fe640b"></rect><rect x="56" y="56" width="28" height="28" rx="3" ry="3" fill="#8839ef"></rect><rect x="28" y="84" width="28" height="28" rx="3" ry="3" fill="#7287fd"></rect><rect x="84" y="84" width="28" height="28" rx="3" ry="3" fill="#ea76cb"></rect><rect x="0" y="112" width="28" height="28" rx="3" ry="3" fill="#7287fd"></rect><rect x="112" y="112" width="28" height="28" rx="3" ry="3" fill="#40a02b"></rect></g>

  <g><rect x="920" y="138" width="280" height="56" rx="28" ry="28" fill="none" stroke="#40a02b" stroke-width="1.5"></rect><text x="1060" y="166" fill="#40a02b" font-family="JetBrains Mono, ui-monospace, monospace" font-size="22" font-weight="500" letter-spacing="3" text-anchor="middle" dominant-baseline="middle">CROSS-PLATFORM</text></g>
  <text x="380" y="310" fill="url(#accent)" font-family="Inter, system-ui, sans-serif" font-size="34" font-weight="500" dominant-baseline="hanging">Privacy-focused fork of Google AI Edge Gallery</text>
  <rect x="380" y="372" width="420" height="3" fill="url(#accent)"></rect>
  <g><rect x="380" y="400" width="326" height="48" rx="24" ry="24" fill="none" stroke="#1e66f5" stroke-width="1.25"></rect><text x="543" y="424" fill="#1e66f5" font-family="Inter, system-ui, sans-serif" font-size="20" font-weight="500" text-anchor="middle" dominant-baseline="middle">Hybrid LiteRT + llama.cpp</text></g>
  <g><rect x="718" y="400" width="210" height="48" rx="24" ry="24" fill="none" stroke="#8839ef" stroke-width="1.25"></rect><text x="823" y="424" fill="#8839ef" font-family="Inter, system-ui, sans-serif" font-size="20" font-weight="500" text-anchor="middle" dominant-baseline="middle">GPU · CPU · NPU</text></g>
  <g><rect x="940" y="400" width="188" height="48" rx="24" ry="24" fill="none" stroke="#fe640b" stroke-width="1.25"></rect><text x="1034" y="424" fill="#fe640b" font-family="Inter, system-ui, sans-serif" font-size="20" font-weight="500" text-anchor="middle" dominant-baseline="middle">Stable Diffusion</text></g>
  <g><rect x="1140" y="400" width="80" height="48" rx="24" ry="24" fill="none" stroke="#179299" stroke-width="1.25"></rect><text x="1180" y="424" fill="#179299" font-family="Inter, system-ui, sans-serif" font-size="20" font-weight="500" text-anchor="middle" dominant-baseline="middle">MCP</text></g>
  <g><rect x="380" y="460" width="164" height="48" rx="24" ry="24" fill="none" stroke="#04a5e5" stroke-width="1.25"></rect><text x="462" y="484" fill="#04a5e5" font-family="Inter, system-ui, sans-serif" font-size="20" font-weight="500" text-anchor="middle" dominant-baseline="middle">Whisper STT</text></g>
  <g><rect x="556" y="460" width="164" height="48" rx="24" ry="24" fill="none" stroke="#40a02b" stroke-width="1.25"></rect><text x="638" y="484" fill="#40a02b" font-family="Inter, system-ui, sans-serif" font-size="20" font-weight="500" text-anchor="middle" dominant-baseline="middle">GGUF Import</text></g>
  <g><rect x="732" y="460" width="210" height="48" rx="24" ry="24" fill="none" stroke="#40a02b" stroke-width="1.25"></rect><text x="837" y="484" fill="#40a02b" font-family="Inter, system-ui, sans-serif" font-size="20" font-weight="500" text-anchor="middle" dominant-baseline="middle">Free Talk · S2S</text></g>
  <g><rect x="954" y="460" width="164" height="48" rx="24" ry="24" fill="none" stroke="#ea76cb" stroke-width="1.25"></rect><text x="1036" y="484" fill="#ea76cb" font-family="Inter, system-ui, sans-serif" font-size="20" font-weight="500" text-anchor="middle" dominant-baseline="middle">Vision Talk</text></g>
  <g><rect x="1130" y="460" width="90" height="48" rx="24" ry="24" fill="none" stroke="#04a5e5" stroke-width="1.25"></rect><text x="1175" y="484" fill="#04a5e5" font-family="Inter, system-ui, sans-serif" font-size="20" font-weight="500" text-anchor="middle" dominant-baseline="middle">RAG</text></g>
  <g><rect x="380" y="520" width="233" height="48" rx="24" ry="24" fill="none" stroke="#8839ef" stroke-width="1.25"></rect><text x="496.5" y="544" fill="#8839ef" font-family="Inter, system-ui, sans-serif" font-size="20" font-weight="500" text-anchor="middle" dominant-baseline="middle">Document Analysis</text></g>
  <g><rect x="625" y="520" width="198" height="48" rx="24" ry="24" fill="none" stroke="#df8e1d" stroke-width="1.25"></rect><text x="724" y="544" fill="#df8e1d" font-family="Inter, system-ui, sans-serif" font-size="20" font-weight="500" text-anchor="middle" dominant-baseline="middle">Encrypted Chat</text></g>
  <g><rect x="835" y="520" width="198" height="48" rx="24" ry="24" fill="none" stroke="#d20f39" stroke-width="1.25"></rect><text x="934" y="544" fill="#d20f39" font-family="Inter, system-ui, sans-serif" font-size="20" font-weight="500" text-anchor="middle" dominant-baseline="middle">Biometric Lock</text></g>
  <g><rect x="1045" y="520" width="175" height="48" rx="24" ry="24" fill="none" stroke="#d20f39" stroke-width="1.25"></rect><text x="1132.5" y="544" fill="#d20f39" font-family="Inter, system-ui, sans-serif" font-size="20" font-weight="500" text-anchor="middle" dominant-baseline="middle">Hard Offline</text></g>
  <text x="380" y="612" font-family="JetBrains Mono, ui-monospace, monospace" font-size="18" letter-spacing="1.5" fill="#179299">CROSS-PLATFORM<tspan dx="14" fill="#9ca0b0">·</tspan><tspan dx="8" fill="#df8e1d">APACHE 2.0</tspan><tspan dx="14" fill="#9ca0b0">·</tspan><tspan dx="8" fill="#8839ef">KOTLIN + COMPOSE</tspan><tspan dx="14" fill="#9ca0b0">·</tspan><tspan dx="8" fill="#40a02b">100% ON-DEVICE</tspan></text>
</svg>