<?xml version="1.0"?>
<svg xmlns="http://www.w3.org/2000/svg" viewBox="0 0 1332 260" width="1332" height="260">
  <defs>
    <linearGradient id="bg-cp-catppuccin-latte" x1="0" y1="0" x2="0" y2="1">
      <stop offset="0" stop-color="#eff1f5"></stop>
      <stop offset="1" stop-color="#e6e9ef"></stop>
    </linearGradient>
    <radialGradient id="glow-cp-catppuccin-latte" cx="0%" cy="100%" r="60%">
      <stop offset="0%" stop-color="#bcc0cc" stop-opacity="0.55"></stop>
      <stop offset="100%" stop-color="#bcc0cc" stop-opacity="0"></stop>
    </radialGradient>
  </defs>
  <rect width="1332" height="260" fill="url(#bg-cp-catppuccin-latte)"></rect>
  <rect width="1332" height="260" fill="url(#glow-cp-catppuccin-latte)"></rect>
  <g stroke="#7a8a72" stroke-width="2" fill="none" stroke-linecap="square">
    <path d="M 34 14 L 14 14 L 14 34"></path>
    <path d="M 1298 14 L 1318 14 L 1318 34"></path>
    <path d="M 34 246 L 14 246 L 14 226"></path>
    <path d="M 1298 246 L 1318 246 L 1318 226"></path>
  </g>
  <g transform="translate(40,40) scale(0.6)">
    <polygon points="100,10 190,55 100,100 10,55" fill="#ffffff" stroke="#4c4f69" stroke-width="2" stroke-linejoin="miter"></polygon>
    <polygon points="10,55 100,100 100,210 10,165" fill="#bcc0cc" stroke="#4c4f69" stroke-width="2" stroke-linejoin="miter"></polygon>
    <polygon points="190,55 100,100 100,210 190,165" fill="#dce0e8" stroke="#4c4f69" stroke-width="2" stroke-linejoin="miter"></polygon>
  </g>
  <g transform="translate(196,50)"><rect x="0" y="0" width="16" height="16" fill="#4c4f69"></rect><rect x="16" y="0" width="16" height="16" fill="#4c4f69"></rect><rect x="32" y="0" width="16" height="16" fill="#4c4f69"></rect><rect x="48" y="0" width="16" height="16" fill="#4c4f69"></rect><rect x="0" y="16" width="16" height="16" fill="#4c4f69"></rect><rect x="64" y="16" width="16" height="16" fill="#4c4f69"></rect><rect x="0" y="32" width="16" height="16" fill="#4c4f69"></rect><rect x="16" y="32" width="16" height="16" fill="#4c4f69"></rect><rect x="32" y="32" width="16" height="16" fill="#4c4f69"></rect><rect x="48" y="32" width="16" height="16" fill="#4c4f69"></rect><rect x="0" y="48" width="16" height="16" fill="#4c4f69"></rect><rect x="64" y="48" width="16" height="16" fill="#4c4f69"></rect><rect x="0" y="64" width="16" height="16" fill="#4c4f69"></rect><rect x="64" y="64" width="16" height="16" fill="#4c4f69"></rect><rect x="0" y="80" width="16" height="16" fill="#4c4f69"></rect><rect x="16" y="80" width="16" height="16" fill="#4c4f69"></rect><rect x="32" y="80" width="16" height="16" fill="#4c4f69"></rect><rect x="48" y="80" width="16" height="16" fill="#4c4f69"></rect></g><g transform="translate(308,66)"><rect x="16" y="0" width="16" height="16" fill="#4c4f69"></rect><rect x="32" y="0" width="16" height="16" fill="#4c4f69"></rect><rect x="48" y="0" width="16" height="16" fill="#4c4f69"></rect><rect x="0" y="16" width="16" height="16" fill="#4c4f69"></rect><rect x="64" y="16" width="16" height="16" fill="#4c4f69"></rect><rect x="0" y="32" width="16" height="16" fill="#4c4f69"></rect><rect x="64" y="32" width="16" height="16" fill="#4c4f69"></rect><rect x="0" y="48" width="16" height="16" fill="#4c4f69"></rect><rect x="64" y="48" width="16" height="16" fill="#4c4f69"></rect><rect x="16" y="64" width="16" height="16" fill="#4c4f69"></rect><rect x="32" y="64" width="16" height="16" fill="#4c4f69"></rect><rect x="48" y="64" width="16" height="16" fill="#4c4f69"></rect></g><g transform="translate(420,66)"><rect x="0" y="0" width="16" height="16" fill="#4c4f69"></rect><rect x="64" y="0" width="16" height="16" fill="#4c4f69"></rect><rect x="16" y="16" width="16" height="16" fill="#4c4f69"></rect><rect x="48" y="16" width="16" height="16" fill="#4c4f69"></rect><rect x="32" y="32" width="16" height="16" fill="#4c4f69"></rect><rect x="16" y="48" width="16" height="16" fill="#4c4f69"></rect><rect x="48" y="48" width="16" height="16" fill="#4c4f69"></rect><rect x="0" y="64" width="16" height="16" fill="#4c4f69"></rect><rect x="64" y="64" width="16" height="16" fill="#4c4f69"></rect></g>
  <text x="196" y="222" fill="#7c7f93" font-family="JetBrains Mono, ui-monospace, monospace" font-size="13" letter-spacing="3"><tspan fill="#40a02b">CROSS-PLATFORM</tspan><tspan dx="10">·</tspan><tspan dx="6">ON-DEVICE AI</tspan><tspan dx="10">·</tspan><tspan dx="6">APACHE 2.0</tspan></text>
  <text x="1292" y="79.4" font-family="JetBrains Mono, ui-monospace, monospace" font-size="15" text-anchor="end"><tspan fill="#8839ef" font-weight="600">chat</tspan><tspan fill="#5c5f77" fill-opacity="0.55"> → </tspan><tspan fill="#5c5f77" fill-opacity="0.85">llama.cpp · litert</tspan></text><text x="1292" y="101.4" font-family="JetBrains Mono, ui-monospace, monospace" font-size="15" text-anchor="end"><tspan fill="#fe640b" font-weight="600">image gen</tspan><tspan fill="#5c5f77" fill-opacity="0.55"> → </tspan><tspan fill="#5c5f77" fill-opacity="0.85">stable-diffusion.cpp</tspan></text><text x="1292" y="123.4" font-family="JetBrains Mono, ui-monospace, monospace" font-size="15" text-anchor="end"><tspan fill="#04a5e5" font-weight="600">voice</tspan><tspan fill="#5c5f77" fill-opacity="0.55"> → </tspan><tspan fill="#5c5f77" fill-opacity="0.85">whisper.cpp · tts</tspan></text><text x="1292" y="145.4" font-family="JetBrains Mono, ui-monospace, monospace" font-size="15" text-anchor="end"><tspan fill="#ea76cb" font-weight="600">vision</tspan><tspan fill="#5c5f77" fill-opacity="0.55"> → </tspan><tspan fill="#5c5f77" fill-opacity="0.85">gemma 4 · 32k</tspan></text><text x="1292" y="167.4" font-family="JetBrains Mono, ui-monospace, monospace" font-size="15" text-anchor="end"><tspan fill="#40a02b" font-weight="600">rag</tspan><tspan fill="#5c5f77" fill-opacity="0.55"> → </tspan><tspan fill="#5c5f77" fill-opacity="0.85">embeddings · vector db</tspan></text><text x="1292" y="189.4" font-family="JetBrains Mono, ui-monospace, monospace" font-size="15" text-anchor="end"><tspan fill="#d20f39" font-weight="600">offline</tspan><tspan fill="#5c5f77" fill-opacity="0.55"> → </tspan><tspan fill="#5c5f77" fill-opacity="0.85">encrypted · biometric</tspan></text>
</svg>